# Blender 4.2.3 LTS
# www.blender.org
mtllib black_cube.mtl
o Cube
v 0.444444 0.444444 -0.444444
v 0.444444 -0.444444 -0.444444
v 0.444444 0.444444 0.444444
v 0.444444 -0.444444 0.444444
v -0.444444 0.444444 -0.444444
v -0.444444 -0.444444 -0.444444
v -0.444444 0.444444 0.444444
v -0.444444 -0.444444 0.444444
vn -0.0000 1.0000 -0.0000
vn -0.0000 -0.0000 1.0000
vn -1.0000 -0.0000 -0.0000
vn -0.0000 -1.0000 -0.0000
vn 1.0000 -0.0000 -0.0000
vn -0.0000 -0.0000 -1.0000
vt 0.609430 0.494812
vt 0.865180 0.494812
vt 0.865180 0.757141
vt 0.609430 0.757141
vt 0.356943 0.748610
vt 0.615713 0.748610
vt 0.615713 0.998610
vt 0.356943 0.998610
vt 0.359375 0.009298
vt 0.609375 0.009298
vt 0.609375 0.262186
vt 0.359375 0.262186
vt 0.104383 0.496671
vt 0.364367 0.496671
vt 0.364367 0.755282
vt 0.104383 0.755282
vt 0.359515 0.494382
vt 0.613141 0.494382
vt 0.613141 0.755618
vt 0.359515 0.755618
vt 0.361047 0.255569
vt 0.611047 0.255569
vt 0.611047 0.500571
vt 0.361047 0.500571
s 0
usemtl Material
f 1/1/1 5/2/1 7/3/1 3/4/1
f 4/5/2 3/6/2 7/7/2 8/8/2
f 8/9/3 7/10/3 5/11/3 6/12/3
f 6/13/4 2/14/4 4/15/4 8/16/4
f 2/17/5 1/18/5 3/19/5 4/20/5
f 6/21/6 5/22/6 1/23/6 2/24/6
