# Blender 4.2.3 LTS
# www.blender.org
mtllib Cubo_amarillo.mtl
o Cube
v 0.444444 0.444444 -0.444444
v 0.444444 -0.444444 -0.444444
v 0.444444 0.444444 0.444444
v 0.444444 -0.444444 0.444444
v -0.444444 0.444444 -0.444444
v -0.444444 -0.444444 -0.444444
v -0.444444 0.444444 0.444444
v -0.444444 -0.444444 0.444444
vn -0.0000 1.0000 -0.0000
vn -0.0000 -0.0000 1.0000
vn -1.0000 -0.0000 -0.0000
vn -0.0000 -1.0000 -0.0000
vn 1.0000 -0.0000 -0.0000
vn -0.0000 -0.0000 -1.0000
vt 0.611676 0.501159
vt 0.861676 0.501159
vt 0.861676 0.751159
vt 0.611676 0.751159
vt 0.361676 0.750000
vt 0.611676 0.750000
vt 0.611676 1.000000
vt 0.361676 1.000000
vt 0.360565 0.006662
vt 0.610565 0.006662
vt 0.610565 0.256662
vt 0.360565 0.256662
vt 0.110565 0.501110
vt 0.360565 0.501110
vt 0.360565 0.751110
vt 0.110565 0.751110
vt 0.362786 0.500000
vt 0.612786 0.500000
vt 0.612786 0.750000
vt 0.362786 0.750000
vt 0.360565 0.252221
vt 0.610565 0.252221
vt 0.610565 0.502221
vt 0.360565 0.502221
s 0
usemtl Cubo
f 1/1/1 5/2/1 7/3/1 3/4/1
f 4/5/2 3/6/2 7/7/2 8/8/2
f 8/9/3 7/10/3 5/11/3 6/12/3
f 6/13/4 2/14/4 4/15/4 8/16/4
f 2/17/5 1/18/5 3/19/5 4/20/5
f 6/21/6 5/22/6 1/23/6 2/24/6
